<svg width="34" height="34" viewBox="0 0 34 34" fill="none" xmlns="http://www.w3.org/2000/svg">
<rect width="34" height="34" rx="5" fill="#2B3964"/>
<path d="M11.7848 9L14.9848 20.0019H15.1067L18.3067 9H23.0914L17.941 24.6038H12.1505L7 9H11.7848Z" fill="#FBFBFB"/>
<path d="M24.8667 24.8476C24.2775 24.8476 23.7721 24.6419 23.3505 24.2305C22.934 23.814 22.7283 23.3086 22.7333 22.7143C22.7283 22.1352 22.934 21.64 23.3505 21.2286C23.7721 20.8171 24.2775 20.6114 24.8667 20.6114C25.4254 20.6114 25.9181 20.8171 26.3448 21.2286C26.7765 21.64 26.9949 22.1352 27 22.7143C26.9949 23.1105 26.8908 23.4711 26.6876 23.7962C26.4895 24.1162 26.2305 24.3727 25.9105 24.5657C25.5905 24.7537 25.2425 24.8476 24.8667 24.8476Z" fill="#FBFBFB"/>
</svg>
