<svg width="600" height="800" viewBox="0 0 600 800" fill="none" xmlns="http://www.w3.org/2000/svg">
<rect width="600" height="800" fill="#2B3964"/>
<g clip-path="url(#clip0_20_3)">
<mask id="mask0_20_3" style="mask-type:luminance" maskUnits="userSpaceOnUse" x="0" y="0" width="200" height="400">
<path d="M200 0H0V400H200V0Z" fill="white"/>
</mask>
<g mask="url(#mask0_20_3)">
<path fill-rule="evenodd" clip-rule="evenodd" d="M75 50C75 63.8071 63.8071 75 50 75C36.1929 75 25 63.8071 25 50C25 36.1929 36.1929 25 50 25C63.8071 25 75 36.1929 75 50ZM63 50.5C63 57.4036 57.4036 63 50.5 63C43.5964 63 38 57.4036 38 50.5C38 43.5964 43.5964 38 50.5 38C57.4036 38 63 43.5964 63 50.5Z" fill="#FBFAED"/>
<path fill-rule="evenodd" clip-rule="evenodd" d="M0 0H100V100H0V0ZM88 50.5C88 71.2107 71.2107 88 50.5 88C29.7893 88 13 71.2107 13 50.5C13 29.7893 29.7893 13 50.5 13C71.2107 13 88 29.7893 88 50.5Z" fill="#FBFAED"/>
<path d="M100 50C127.614 50 150 27.6142 150 0C150 27.6142 172.386 50 200 50C172.386 50 150 72.3858 150 100C150 72.3858 127.614 50 100 50Z" fill="#FBFAED"/>
<path d="M0 100C55.2285 100 100 144.772 100 200C44.7715 200 0 155.228 0 100Z" fill="#FBFAED"/>
<path fill-rule="evenodd" clip-rule="evenodd" d="M200 100H100V200H200V100ZM100 200C155.228 200 200 155.228 200 100C144.772 100 100 144.772 100 200Z" fill="#FBFAED"/>
<path fill-rule="evenodd" clip-rule="evenodd" d="M125 350C125 336.193 136.193 325 150 325C163.807 325 175 336.193 175 350C175 363.807 163.807 375 150 375C136.193 375 125 363.807 125 350ZM137 349.5C137 342.596 142.596 337 149.5 337C156.404 337 162 342.596 162 349.5C162 356.404 156.404 362 149.5 362C142.596 362 137 356.404 137 349.5Z" fill="#FBFAED"/>
<path fill-rule="evenodd" clip-rule="evenodd" d="M200 400H100V300H200V400ZM112 349.5C112 328.789 128.789 312 149.5 312C170.211 312 187 328.789 187 349.5C187 370.211 170.211 387 149.5 387C128.789 387 112 370.211 112 349.5Z" fill="#FBFAED"/>
<path d="M100 350C72.3858 350 50 372.386 50 400C50 372.386 27.6142 350 0 350C27.6142 350 50 327.614 50 300C50 327.614 72.3858 350 100 350Z" fill="#FBFAED"/>
<path d="M200 300C144.772 300 100 255.228 100 200C155.228 200 200 244.772 200 300Z" fill="#FBFAED"/>
<path fill-rule="evenodd" clip-rule="evenodd" d="M0 300H100V200H0V300ZM100 200C44.7715 200 0 244.772 0 300C55.2285 300 100 255.228 100 200Z" fill="#FBFAED"/>
</g>
</g>
<g clip-path="url(#clip1_20_3)">
<mask id="mask1_20_3" style="mask-type:luminance" maskUnits="userSpaceOnUse" x="0" y="400" width="200" height="400">
<path d="M200 400H0V800H200V400Z" fill="white"/>
</mask>
<g mask="url(#mask1_20_3)">
<path fill-rule="evenodd" clip-rule="evenodd" d="M75 450C75 463.807 63.8071 475 50 475C36.1929 475 25 463.807 25 450C25 436.193 36.1929 425 50 425C63.8071 425 75 436.193 75 450ZM63 450.5C63 457.404 57.4036 463 50.5 463C43.5964 463 38 457.404 38 450.5C38 443.596 43.5964 438 50.5 438C57.4036 438 63 443.596 63 450.5Z" fill="#FBFAED"/>
<path fill-rule="evenodd" clip-rule="evenodd" d="M0 400H100V500H0V400ZM88 450.5C88 471.211 71.2107 488 50.5 488C29.7893 488 13 471.211 13 450.5C13 429.789 29.7893 413 50.5 413C71.2107 413 88 429.789 88 450.5Z" fill="#FBFAED"/>
<path d="M100 450C127.614 450 150 427.614 150 400C150 427.614 172.386 450 200 450C172.386 450 150 472.386 150 500C150 472.386 127.614 450 100 450Z" fill="#FBFAED"/>
<path d="M0 500C55.2285 500 100 544.772 100 600C44.7715 600 0 555.228 0 500Z" fill="#FBFAED"/>
<path fill-rule="evenodd" clip-rule="evenodd" d="M200 500H100V600H200V500ZM100 600C155.228 600 200 555.228 200 500C144.772 500 100 544.772 100 600Z" fill="#FBFAED"/>
<path fill-rule="evenodd" clip-rule="evenodd" d="M125 750C125 736.193 136.193 725 150 725C163.807 725 175 736.193 175 750C175 763.807 163.807 775 150 775C136.193 775 125 763.807 125 750ZM137 749.5C137 742.596 142.596 737 149.5 737C156.404 737 162 742.596 162 749.5C162 756.404 156.404 762 149.5 762C142.596 762 137 756.404 137 749.5Z" fill="#FBFAED"/>
<path fill-rule="evenodd" clip-rule="evenodd" d="M200 800H100V700H200V800ZM112 749.5C112 728.789 128.789 712 149.5 712C170.211 712 187 728.789 187 749.5C187 770.211 170.211 787 149.5 787C128.789 787 112 770.211 112 749.5Z" fill="#FBFAED"/>
<path d="M100 750C72.3858 750 50 772.386 50 800C50 772.386 27.6142 750 0 750C27.6142 750 50 727.614 50 700C50 727.614 72.3858 750 100 750Z" fill="#FBFAED"/>
<path d="M200 700C144.772 700 100 655.228 100 600C155.228 600 200 644.772 200 700Z" fill="#FBFAED"/>
<path fill-rule="evenodd" clip-rule="evenodd" d="M0 700H100V600H0V700ZM100 600C44.7715 600 0 644.772 0 700C55.2285 700 100 655.228 100 600Z" fill="#FBFAED"/>
</g>
</g>
<g clip-path="url(#clip2_20_3)">
<mask id="mask2_20_3" style="mask-type:luminance" maskUnits="userSpaceOnUse" x="200" y="0" width="200" height="400">
<path d="M400 0H200V400H400V0Z" fill="white"/>
</mask>
<g mask="url(#mask2_20_3)">
<path fill-rule="evenodd" clip-rule="evenodd" d="M275 50C275 63.8071 263.807 75 250 75C236.193 75 225 63.8071 225 50C225 36.1929 236.193 25 250 25C263.807 25 275 36.1929 275 50ZM263 50.5C263 57.4036 257.404 63 250.5 63C243.596 63 238 57.4036 238 50.5C238 43.5964 243.596 38 250.5 38C257.404 38 263 43.5964 263 50.5Z" fill="#FBFAED"/>
<path fill-rule="evenodd" clip-rule="evenodd" d="M200 0H300V100H200V0ZM288 50.5C288 71.2107 271.211 88 250.5 88C229.789 88 213 71.2107 213 50.5C213 29.7893 229.789 13 250.5 13C271.211 13 288 29.7893 288 50.5Z" fill="#FBFAED"/>
<path d="M300 50C327.614 50 350 27.6142 350 0C350 27.6142 372.386 50 400 50C372.386 50 350 72.3858 350 100C350 72.3858 327.614 50 300 50Z" fill="#FBFAED"/>
<path d="M200 100C255.229 100 300 144.772 300 200C244.771 200 200 155.228 200 100Z" fill="#FBFAED"/>
<path fill-rule="evenodd" clip-rule="evenodd" d="M400 100H300V200H400V100ZM300 200C355.228 200 400 155.228 400 100C344.772 100 300 144.772 300 200Z" fill="#FBFAED"/>
<path fill-rule="evenodd" clip-rule="evenodd" d="M325 350C325 336.193 336.193 325 350 325C363.807 325 375 336.193 375 350C375 363.807 363.807 375 350 375C336.193 375 325 363.807 325 350ZM337 349.5C337 342.596 342.596 337 349.5 337C356.404 337 362 342.596 362 349.5C362 356.404 356.404 362 349.5 362C342.596 362 337 356.404 337 349.5Z" fill="#FBFAED"/>
<path fill-rule="evenodd" clip-rule="evenodd" d="M400 400H300V300H400V400ZM312 349.5C312 328.789 328.789 312 349.5 312C370.211 312 387 328.789 387 349.5C387 370.211 370.211 387 349.5 387C328.789 387 312 370.211 312 349.5Z" fill="#FBFAED"/>
<path d="M300 350C272.386 350 250 372.386 250 400C250 372.386 227.614 350 200 350C227.614 350 250 327.614 250 300C250 327.614 272.386 350 300 350Z" fill="#FBFAED"/>
<path d="M400 300C344.772 300 300 255.228 300 200C355.228 200 400 244.772 400 300Z" fill="#FBFAED"/>
<path fill-rule="evenodd" clip-rule="evenodd" d="M200 300H300V200H200V300ZM300 200C244.771 200 200 244.772 200 300C255.229 300 300 255.228 300 200Z" fill="#FBFAED"/>
</g>
</g>
<g clip-path="url(#clip3_20_3)">
<mask id="mask3_20_3" style="mask-type:luminance" maskUnits="userSpaceOnUse" x="200" y="400" width="200" height="400">
<path d="M400 400H200V800H400V400Z" fill="white"/>
</mask>
<g mask="url(#mask3_20_3)">
<path fill-rule="evenodd" clip-rule="evenodd" d="M275 450C275 463.807 263.807 475 250 475C236.193 475 225 463.807 225 450C225 436.193 236.193 425 250 425C263.807 425 275 436.193 275 450ZM263 450.5C263 457.404 257.404 463 250.5 463C243.596 463 238 457.404 238 450.5C238 443.596 243.596 438 250.5 438C257.404 438 263 443.596 263 450.5Z" fill="#FBFAED"/>
<path fill-rule="evenodd" clip-rule="evenodd" d="M200 400H300V500H200V400ZM288 450.5C288 471.211 271.211 488 250.5 488C229.789 488 213 471.211 213 450.5C213 429.789 229.789 413 250.5 413C271.211 413 288 429.789 288 450.5Z" fill="#FBFAED"/>
<path d="M300 450C327.614 450 350 427.614 350 400C350 427.614 372.386 450 400 450C372.386 450 350 472.386 350 500C350 472.386 327.614 450 300 450Z" fill="#FBFAED"/>
<path d="M200 500C255.229 500 300 544.772 300 600C244.771 600 200 555.228 200 500Z" fill="#FBFAED"/>
<path fill-rule="evenodd" clip-rule="evenodd" d="M400 500H300V600H400V500ZM300 600C355.228 600 400 555.228 400 500C344.772 500 300 544.772 300 600Z" fill="#FBFAED"/>
<path fill-rule="evenodd" clip-rule="evenodd" d="M325 750C325 736.193 336.193 725 350 725C363.807 725 375 736.193 375 750C375 763.807 363.807 775 350 775C336.193 775 325 763.807 325 750ZM337 749.5C337 742.596 342.596 737 349.5 737C356.404 737 362 742.596 362 749.5C362 756.404 356.404 762 349.5 762C342.596 762 337 756.404 337 749.5Z" fill="#FBFAED"/>
<path fill-rule="evenodd" clip-rule="evenodd" d="M400 800H300V700H400V800ZM312 749.5C312 728.789 328.789 712 349.5 712C370.211 712 387 728.789 387 749.5C387 770.211 370.211 787 349.5 787C328.789 787 312 770.211 312 749.5Z" fill="#FBFAED"/>
<path d="M300 750C272.386 750 250 772.386 250 800C250 772.386 227.614 750 200 750C227.614 750 250 727.614 250 700C250 727.614 272.386 750 300 750Z" fill="#FBFAED"/>
<path d="M400 700C344.772 700 300 655.228 300 600C355.228 600 400 644.772 400 700Z" fill="#FBFAED"/>
<path fill-rule="evenodd" clip-rule="evenodd" d="M200 700H300V600H200V700ZM300 600C244.771 600 200 644.772 200 700C255.229 700 300 655.228 300 600Z" fill="#FBFAED"/>
</g>
</g>
<g clip-path="url(#clip4_20_3)">
<mask id="mask4_20_3" style="mask-type:luminance" maskUnits="userSpaceOnUse" x="400" y="0" width="200" height="400">
<path d="M600 0H400V400H600V0Z" fill="white"/>
</mask>
<g mask="url(#mask4_20_3)">
<path fill-rule="evenodd" clip-rule="evenodd" d="M475 50C475 63.8071 463.807 75 450 75C436.193 75 425 63.8071 425 50C425 36.1929 436.193 25 450 25C463.807 25 475 36.1929 475 50ZM463 50.5C463 57.4036 457.404 63 450.5 63C443.596 63 438 57.4036 438 50.5C438 43.5964 443.596 38 450.5 38C457.404 38 463 43.5964 463 50.5Z" fill="#FBFAED"/>
<path fill-rule="evenodd" clip-rule="evenodd" d="M400 0H500V100H400V0ZM488 50.5C488 71.2107 471.211 88 450.5 88C429.789 88 413 71.2107 413 50.5C413 29.7893 429.789 13 450.5 13C471.211 13 488 29.7893 488 50.5Z" fill="#FBFAED"/>
<path d="M500 50C527.614 50 550 27.6142 550 0C550 27.6142 572.386 50 600 50C572.386 50 550 72.3858 550 100C550 72.3858 527.614 50 500 50Z" fill="#FBFAED"/>
<path d="M400 100C455.229 100 500 144.772 500 200C444.771 200 400 155.228 400 100Z" fill="#FBFAED"/>
<path fill-rule="evenodd" clip-rule="evenodd" d="M600 100H500V200H600V100ZM500 200C555.228 200 600 155.228 600 100C544.772 100 500 144.772 500 200Z" fill="#FBFAED"/>
<path fill-rule="evenodd" clip-rule="evenodd" d="M525 350C525 336.193 536.193 325 550 325C563.807 325 575 336.193 575 350C575 363.807 563.807 375 550 375C536.193 375 525 363.807 525 350ZM537 349.5C537 342.596 542.596 337 549.5 337C556.404 337 562 342.596 562 349.5C562 356.404 556.404 362 549.5 362C542.596 362 537 356.404 537 349.5Z" fill="#FBFAED"/>
<path fill-rule="evenodd" clip-rule="evenodd" d="M600 400H500V300H600V400ZM512 349.5C512 328.789 528.789 312 549.5 312C570.211 312 587 328.789 587 349.5C587 370.211 570.211 387 549.5 387C528.789 387 512 370.211 512 349.5Z" fill="#FBFAED"/>
<path d="M500 350C472.386 350 450 372.386 450 400C450 372.386 427.614 350 400 350C427.614 350 450 327.614 450 300C450 327.614 472.386 350 500 350Z" fill="#FBFAED"/>
<path d="M600 300C544.772 300 500 255.228 500 200C555.228 200 600 244.772 600 300Z" fill="#FBFAED"/>
<path fill-rule="evenodd" clip-rule="evenodd" d="M400 300H500V200H400V300ZM500 200C444.771 200 400 244.772 400 300C455.229 300 500 255.228 500 200Z" fill="#FBFAED"/>
</g>
</g>
<g clip-path="url(#clip5_20_3)">
<mask id="mask5_20_3" style="mask-type:luminance" maskUnits="userSpaceOnUse" x="400" y="400" width="200" height="400">
<path d="M600 400H400V800H600V400Z" fill="white"/>
</mask>
<g mask="url(#mask5_20_3)">
<path fill-rule="evenodd" clip-rule="evenodd" d="M475 450C475 463.807 463.807 475 450 475C436.193 475 425 463.807 425 450C425 436.193 436.193 425 450 425C463.807 425 475 436.193 475 450ZM463 450.5C463 457.404 457.404 463 450.5 463C443.596 463 438 457.404 438 450.5C438 443.596 443.596 438 450.5 438C457.404 438 463 443.596 463 450.5Z" fill="#FBFAED"/>
<path fill-rule="evenodd" clip-rule="evenodd" d="M400 400H500V500H400V400ZM488 450.5C488 471.211 471.211 488 450.5 488C429.789 488 413 471.211 413 450.5C413 429.789 429.789 413 450.5 413C471.211 413 488 429.789 488 450.5Z" fill="#FBFAED"/>
<path d="M500 450C527.614 450 550 427.614 550 400C550 427.614 572.386 450 600 450C572.386 450 550 472.386 550 500C550 472.386 527.614 450 500 450Z" fill="#FBFAED"/>
<path d="M400 500C455.229 500 500 544.772 500 600C444.771 600 400 555.228 400 500Z" fill="#FBFAED"/>
<path fill-rule="evenodd" clip-rule="evenodd" d="M600 500H500V600H600V500ZM500 600C555.228 600 600 555.228 600 500C544.772 500 500 544.772 500 600Z" fill="#FBFAED"/>
<path fill-rule="evenodd" clip-rule="evenodd" d="M525 750C525 736.193 536.193 725 550 725C563.807 725 575 736.193 575 750C575 763.807 563.807 775 550 775C536.193 775 525 763.807 525 750ZM537 749.5C537 742.596 542.596 737 549.5 737C556.404 737 562 742.596 562 749.5C562 756.404 556.404 762 549.5 762C542.596 762 537 756.404 537 749.5Z" fill="#FBFAED"/>
<path fill-rule="evenodd" clip-rule="evenodd" d="M600 800H500V700H600V800ZM512 749.5C512 728.789 528.789 712 549.5 712C570.211 712 587 728.789 587 749.5C587 770.211 570.211 787 549.5 787C528.789 787 512 770.211 512 749.5Z" fill="#FBFAED"/>
<path d="M500 750C472.386 750 450 772.386 450 800C450 772.386 427.614 750 400 750C427.614 750 450 727.614 450 700C450 727.614 472.386 750 500 750Z" fill="#FBFAED"/>
<path d="M600 700C544.772 700 500 655.228 500 600C555.228 600 600 644.772 600 700Z" fill="#FBFAED"/>
<path fill-rule="evenodd" clip-rule="evenodd" d="M400 700H500V600H400V700ZM500 600C444.771 600 400 644.772 400 700C455.229 700 500 655.228 500 600Z" fill="#FBFAED"/>
</g>
</g>
<defs>
<clipPath id="clip0_20_3">
<rect width="200" height="400" fill="white"/>
</clipPath>
<clipPath id="clip1_20_3">
<rect width="200" height="400" fill="white" transform="translate(0 400)"/>
</clipPath>
<clipPath id="clip2_20_3">
<rect width="200" height="400" fill="white" transform="translate(200)"/>
</clipPath>
<clipPath id="clip3_20_3">
<rect width="200" height="400" fill="white" transform="translate(200 400)"/>
</clipPath>
<clipPath id="clip4_20_3">
<rect width="200" height="400" fill="white" transform="translate(400)"/>
</clipPath>
<clipPath id="clip5_20_3">
<rect width="200" height="400" fill="white" transform="translate(400 400)"/>
</clipPath>
</defs>
</svg>
